PathFileType	3	(X/Y/Z)	C:\Users\koon_\Desktop\
DataRate	CameraRate	NumFrames	NumMarkers	Units	OrigDataRate	OrigDataStartFrame	OrigNumFrames
100.0	100.0	4	27	mm	100.0	1903	3804	
Frame#	Time	get:LFHD			get:RFHD			get:LBHD			get:RBHD			get:C7			get:T10			get:CLAV			get:STRN			get:RBAK			get:LSHO			get:LUPA			get:LELB			get:LFRA			get:LWRA			get:LWRB			get:LFIN			get:RSHO			get:RUPA			get:RELB			get:RFRA			get:RWRA			get:RWRB			get:RFIN			get:LASI			get:RASI			get:LPSI			get:RPSI			
		X1	Y1	Z1	X2	Y2	Z2	X3	Y3	Z3	X4	Y4	Z4	X5	Y5	Z5	X6	Y6	Z6	X7	Y7	Z7	X8	Y8	Z8	X9	Y9	Z9	X10	Y10	Z10	X11	Y11	Z11	X12	Y12	Z12	X13	Y13	Z13	X14	Y14	Z14	X15	Y15	Z15	X16	Y16	Z16	X17	Y17	Z17	X18	Y18	Z18	X19	Y19	Z19	X20	Y20	Z20	X21	Y21	Z21	X22	Y22	Z22	X23	Y23	Z23	X24	Y24	Z24	X25	Y25	Z25	X26	Y26	Z26	X27	Y27	Z27	
1903	19.02	75.974846	1565.9248	-48.460087	-63.461796	1557.2919	-69.050858	76.544762	1551.8755	-210.29573	-50.057331	1519.4851	-231.48167	22.669954	1331.3282	-215.06384	8.1475086	1139.8575	-245.94923	21.836107	1277.4663	-10.125074	28.277273	1081.2198	28.350657	-75.503387	1263.7888	-221.63458	125.08985	1355.9429	-123.40094	206.68163	1353.3622	-45.429039	253.20976	1356.9972	134.5408	199.41806	1452.2959	243.20959	160.94565	1490.418	312.07971	224.32176	1442.7145	343.31305	221.82706	1533.6838	374.09274	-84.71093	1354.556	-117.09312	-174.66768	1364.0956	17.671976	-246.43036	1339.446	128.94798	-213.80792	1426.2456	161.63142	-199.85489	1497.6692	308.69653	-254.52382	1446.9349	335.87424	-267.96542	1539.4073	358.5502	148.79414	892.10114	-23.513441	-118.60103	879.75958	-18.880827	53.103924	938.98389	-241.12531	-36.842865	938.01935	-240.87267
1904	19.03	75.312355	1565.6984	-47.641357	-63.952335	1556.7758	-69.558846	77.533745	1552.0153	-209.42186	-48.804955	1519.3654	-231.96957	23.53573	1331.083	-215.15843	9.1104641	1139.4641	-246.19046	21.768541	1277.0935	-10.281347	27.865025	1080.8156	28.083799	-74.527634	1263.5564	-222.38216	125.68957	1355.5182	-123.09866	207.25352	1352.2352	-44.33939	252.99731	1354.3848	135.82079	198.04796	1450.5143	242.76384	158.37617	1489.3497	309.97128	221.38191	1441.9965	343.22177	218.11678	1533.2847	372.66354	-84.471817	1354.2659	-117.73306	-176.24469	1362.5293	16.84841	-248.99803	1337.1414	127.29932	-216.16115	1423.7753	159.75789	-200.86035	1496.34	305.86789	-255.80763	1446.3232	333.7468	-268.48621	1539.0409	355.38266	148.57706	891.92517	-23.082499	-118.85998	879.76691	-19.679714	53.795029	938.57837	-241.2552	-36.102623	937.49091	-241.22751
1905	19.04	74.555656	1565.4321	-46.767799	-64.491364	1556.2495	-70.185143	78.605858	1552.1365	-208.52679	-47.452175	1519.3114	-232.63142	24.41486	1330.8291	-215.28746	10.170673	1139.1836	-246.5173	21.64065	1276.6249	-10.462846	27.321428	1080.411	27.69622	-73.572556	1263.3014	-223.1138	126.21747	1355.1105	-122.69447	207.79518	1351.0438	-43.178822	252.82272	1351.4175	137.15953	196.20978	1448.0933	242.22597	155.34981	1487.5811	308.7897	218.24266	1441.0487	342.98682	214.47556	1532.7385	371.0065	-84.291534	1353.9827	-118.486	-177.91768	1360.8164	15.968868	-251.63531	1334.7241	125.49648	-218.78595	1421.111	157.74022	-201.77827	1495.0215	303.04123	-257.15195	1445.5007	331.43805	-269.26102	1538.5815	351.91739	148.31412	891.73761	-22.622713	-119.16028	879.71973	-20.568199	54.568817	938.06567	-241.20909	-35.335377	937.0423	-241.84445
1906	19.05	73.844505	1565.0784	-45.769985	-64.973183	1555.7057	-70.833191	79.671677	1552.2051	-207.56177	-46.05217	1519.2489	-233.17693	25.404192	1330.5371	-215.33769	11.270152	1138.799	-246.70586	21.455482	1276.1582	-10.659517	26.733835	1079.9838	27.396748	-72.50238	1263.0184	-223.92278	126.78136	1354.6896	-122.21755	208.27113	1349.821	-41.799957	252.69797	1348.2208	138.69411	194.93488	1445.8247	241.66508	152.63199	1486.0251	306.78769	215.07925	1439.892	342.76773	210.84782	1532.0476	369.15588	-84.171257	1353.4999	-119.05936	-179.36748	1358.9497	15.2112	-254.35576	1332.0146	123.56719	-221.57451	1418.0636	155.94049	-203.02142	1493.6127	299.70486	-258.5394	1444.5914	329.05453	-270.26666	1537.8594	348.25955	148.08804	891.55859	-22.179424	-119.40641	879.64594	-21.3848	55.407547	937.51556	-241.31866	-34.535393	936.53436	-242.33034
